<?xml version="1.0" standalone="no"?>
<!DOCTYPE svg PUBLIC "-//W3C//DTD SVG 20010904//EN"
 "http://www.w3.org/TR/2001/REC-SVG-20010904/DTD/svg10.dtd">
<svg version="1.0" xmlns="http://www.w3.org/2000/svg"
 width="168.000000pt" height="149.000000pt" viewBox="0 0 168.000000 149.000000"
 preserveAspectRatio="xMidYMid meet">

<g transform="translate(0.000000,149.000000) scale(0.100000,-0.100000)"
fill="#000000" stroke="none">
<path d="M1045 1433 c-88 -29 -168 -56 -177 -59 -16 -5 -18 2 -18 45 l0 51
-190 0 -190 0 0 -730 0 -730 190 0 190 0 0 677 c0 373 4 673 9 668 4 -6 42
-111 84 -235 91 -273 379 -1114 381 -1117 1 -1 81 23 178 54 l176 56 -135 396
c-74 218 -177 522 -230 676 -52 154 -98 285 -102 291 -4 8 -58 -6 -166 -43z"/>
<path d="M0 740 l0 -730 190 0 190 0 0 730 0 730 -190 0 -190 0 0 -730z"/>
</g>
</svg>
