<?xml version="1.0" standalone="no"?>
<!DOCTYPE svg PUBLIC "-//W3C//DTD SVG 20010904//EN"
 "http://www.w3.org/TR/2001/REC-SVG-20010904/DTD/svg10.dtd">
<svg version="1.0" xmlns="http://www.w3.org/2000/svg"
 width="200.000000pt" height="200.000000pt" viewBox="0 0 200.000000 200.000000"
 preserveAspectRatio="xMidYMid meet">

<g transform="translate(0.000000,200.000000) scale(0.100000,-0.100000)"
fill="#000000" stroke="none">
<path d="M1208 1660 l-168 -58 0 49 0 49 -190 0 -190 0 0 -730 0 -730 190 0
190 0 2 676 3 676 234 -681 c129 -375 239 -681 245 -681 10 0 337 110 345 116
4 4 -36 124 -222 664 -58 168 -136 395 -174 505 -44 129 -74 201 -83 202 -8 1
-90 -24 -182 -57z"/>
<path d="M190 970 l0 -730 190 0 190 0 0 730 0 730 -190 0 -190 0 0 -730z"/>
</g>
</svg>
