<?xml version="1.0" encoding="utf-8"?>
<!-- Generator: Adobe Illustrator 16.0.0, SVG Export Plug-In . SVG Version: 6.00 Build 0)  -->
<!DOCTYPE svg PUBLIC "-//W3C//DTD SVG 1.1//EN" "http://www.w3.org/Graphics/SVG/1.1/DTD/svg11.dtd">
<svg version="1.1" xmlns="http://www.w3.org/2000/svg" xmlns:xlink="http://www.w3.org/1999/xlink" x="0px" y="0px" width="1024px"
	 height="720px" viewBox="0 0 1024 720" enable-background="new 0 0 1024 720" xml:space="preserve">
	<g id="Layer_2">
		<rect fill="#7762CA" width="1024" height="720"/>
	</g>
	<g id="Layer_1">
		<path fill="#FFFFFF" d="M639.954,628.917c0-0.862,0.009-1.813-0.002-2.76c-0.238-19.604-3.581-38.553-9.717-56.868
			c-3.243-9.677-7.301-18.912-12.462-27.529c-9.234-15.412-21.677-25.949-37.386-31.691c-7.462-2.731-15.084-4.724-22.734-6.62
			c-6.575-1.632-13.117-3.398-19.495-5.854c-1.312-0.505-2.578-1.168-4.16-1.894c0.718-0.674,1.197-1.152,1.699-1.597
			c7.667-6.739,15.357-13.438,23.002-20.213c13.949-12.362,26.353-26.499,37.797-41.738c7.924-10.55,15.103-21.663,20.857-33.886
			c6.317-13.43,10.756-27.592,12.662-42.661c2.592-20.535,0.739-40.51-6.553-59.671c-4.466-11.739-11.044-21.85-19.262-30.642
			c-5.346-5.721-11.32-10.507-17.49-15.014c-10.14-7.404-20.863-13.587-31.924-19.021c-9.471-4.654-19.045-9.048-28.576-13.56
			c-0.554-0.263-1.092-0.573-1.886-0.991c-0.175,1.877-0.488,3.636-0.48,5.395c0.058,17.271,0.164,34.542,0.27,51.813
			c0.112,17.753,0.24,35.505,0.362,53.255c0.156,22.984,0.312,45.965,0.467,68.946c0.095,13.968,0.204,27.935,0.282,41.902
			c0.125,22.571,0.238,45.141,0.341,67.709c0.036,7.92-0.278,15.822-0.979,23.701c-1.099,12.356-4.216,24.13-8.282,35.609
			c-4.16,11.745-9.962,22.384-17.578,31.704c-8.932,10.938-19.188,19.8-31.695,25.042c-7.478,3.133-15.193,5.295-23.034,6.833
			c-17.008,3.331-33.086-0.026-48.384-8.801c-5.573-3.194-9.283-8.18-11.615-14.576c-2.451-6.731-3.141-13.56-1.592-20.776
			c3.784-17.63,11.203-33.088,21.585-46.829c13.311-17.616,29.331-31.108,48.508-39.644c9.227-4.104,18.883-6.131,28.768-6.994
			c8.956-0.778,17.705,0.562,26.403,2.73c0.656,0.166,1.312,0.362,1.979,0.445c1.292,0.16,1.954-0.398,2.18-1.861
			c0.115-0.739,0.126-1.508,0.122-2.262c-0.093-14.655-0.203-29.312-0.293-43.969c-0.062-9.907-0.084-19.816-0.147-29.723
			c-0.143-22.434-0.296-44.866-0.45-67.297c-0.11-15.96-0.229-31.925-0.339-47.889c-0.141-20.711-0.274-41.421-0.413-62.133
			c-0.114-16.857-0.256-33.714-0.339-50.572c-0.122-24.771-0.212-49.544-0.299-74.315c-0.023-6.677,0.003-13.35,0.04-20.027
			c0.007-1.292,0.169-2.583,0.259-3.876c0.125-0.044,0.25-0.088,0.376-0.13c0.275,0.61,0.568,1.211,0.822,1.831
			c2.747,6.679,5.382,13.42,8.259,20.029c3.063,7.038,6.261,14.009,9.573,20.904c3.81,7.924,7.699,15.804,11.749,23.578
			c7.468,14.347,16.146,27.736,25.793,40.344c14.289,18.678,28.48,37.455,42.771,56.133c2.672,3.492,5.572,6.766,8.428,10.076
			c7.315,8.471,12.531,18.417,16.577,29.239c4.255,11.372,6.799,23.245,8.354,35.403c1.204,9.419,1.651,18.877,1.243,28.406
			c-0.873,20.262-6.927,38.241-18.263,54.033c-6.279,8.747-13.139,16.854-20.341,24.647c-10.511,11.377-21.577,22.018-33.041,32.136
			c-8.572,7.567-17.412,14.729-26.747,21.09c-0.783,0.534-1.538,1.124-2.303,1.694c-0.151,0.114-0.275,0.264-0.583,0.565
			c0.51,0.288,0.881,0.592,1.299,0.711c4.501,1.297,8.986,2.66,13.52,3.819c8.943,2.286,17.998,4.061,26.725,7.377
			c16.085,6.113,28.668,17.299,37.99,33.168c8.238,14.022,13.818,29.388,17.955,45.468c2.212,8.6,4.062,17.289,5.309,26.135
			c0.985,7.007,1.623,14.054,1.735,21.15c0.01,0.537-0.039,1.077-0.059,1.589C645.474,629.977,642.215,629.655,639.954,628.917z"/>
	</g>
</svg>
